<svg width="21" height="20" viewBox="0 0 21 20" fill="none" xmlns="http://www.w3.org/2000/svg">
<g clip-path="url(#clip0_18_6590)">
<path d="M13.5117 9.56871H7.95898V10.8272H13.5117V9.56871Z" fill="#FF6A00"/>
<path d="M16.2931 5H12.6191L13.5056 6.26127L16.1844 7.10211C16.4208 7.17719 16.627 7.32668 16.7726 7.52854C16.9181 7.73039 16.9953 7.97393 16.9928 8.22324V12.2425C16.9944 12.4916 16.9169 12.7347 16.7715 12.9364C16.6261 13.1381 16.4204 13.2877 16.1844 13.3636L13.5056 14.1876L12.6191 15.4489H16.2931C16.6586 15.4493 17.0206 15.3769 17.3582 15.236C17.6958 15.0951 18.0023 14.8885 18.2601 14.6279C18.5179 14.3674 18.7219 14.0582 18.8603 13.718C18.9988 13.3779 19.0689 13.0136 19.0667 12.6461V7.80281C19.0667 7.06188 18.7749 6.35109 18.2552 5.82586C17.7354 5.30063 17.03 5.0037 16.2931 5Z" fill="#FF6A00"/>
<path d="M5.18792 5H8.85073L7.97544 6.26127L5.29663 7.10211C5.0599 7.17709 4.85333 7.32647 4.70732 7.52828C4.5613 7.73009 4.48354 7.97368 4.48546 8.22324V12.2425C4.48442 12.4918 4.56252 12.735 4.70841 12.9366C4.8543 13.1383 5.06036 13.2878 5.29663 13.3636L7.97544 14.1876L8.86188 15.4489H5.18792C4.44862 15.4489 3.7396 15.1536 3.21684 14.628C2.69408 14.1023 2.40039 13.3894 2.40039 12.6461V7.80281C2.40039 7.05946 2.69408 6.34655 3.21684 5.82093C3.7396 5.2953 4.44862 5 5.18792 5Z" fill="#FF6A00"/>
</g>
<defs>
<clipPath id="clip0_18_6590">
<rect width="16.6667" height="16.6667" fill="white" transform="translate(2.40039 1.66667)"/>
</clipPath>
</defs>
</svg>
