<svg width="35" height="20" viewBox="0 0 35 20" fill="none" xmlns="http://www.w3.org/2000/svg">
<g clip-path="url(#clip0_95_538)">
<path d="M10.0898 7.25005C10.0898 7.66672 10.1453 8.00005 10.2009 8.25005C10.2843 8.50005 10.3955 8.75005 10.5623 9.05561C10.6179 9.13894 10.6457 9.22228 10.6457 9.30561C10.6457 9.41672 10.5901 9.52783 10.4233 9.63894L9.7284 10.1112C9.61722 10.1667 9.53383 10.2223 9.45044 10.2223C9.33925 10.2223 9.22807 10.1667 9.11688 10.0556C8.95011 9.88894 8.83892 9.72228 8.72774 9.52783C8.61655 9.33339 8.50537 9.13894 8.39418 8.86117C7.5325 9.88894 6.44845 10.3889 5.11423 10.3889C4.16915 10.3889 3.44645 10.1112 2.89053 9.58339C2.3346 9.05561 2.05664 8.33339 2.05664 7.4445C2.05664 6.50005 2.3902 5.72228 3.05731 5.16672C3.72441 4.61117 4.64169 4.30561 5.78134 4.30561C6.17048 4.30561 6.55963 4.33339 6.94878 4.38894C7.36572 4.4445 7.78266 4.52783 8.2274 4.63894V3.83339C8.2274 3.00005 8.06063 2.38894 7.69928 2.05561C7.33792 1.72228 6.7542 1.55561 5.89252 1.55561C5.50337 1.55561 5.11423 1.61117 4.69728 1.6945C4.28034 1.80561 3.89119 1.91672 3.50204 2.08339C3.33527 2.13894 3.19629 2.1945 3.1129 2.22228C3.02951 2.22228 2.97392 2.25005 2.94612 2.25005C2.77934 2.25005 2.72375 2.13894 2.72375 1.91672V1.36117C2.72375 1.1945 2.75155 1.05561 2.80714 0.972277C2.86273 0.888943 2.97392 0.80561 3.1129 0.750054C3.50204 0.55561 3.97458 0.388943 4.50271 0.250054C5.05863 0.111165 5.61456 0.027832 6.22608 0.027832C7.56029 0.027832 8.50537 0.333388 9.14468 0.916721C9.7562 1.52783 10.062 2.41672 10.062 3.66672L10.0898 7.25005ZM5.58676 8.9445C5.94811 8.9445 6.33726 8.88894 6.72641 8.75005C7.11555 8.61117 7.47691 8.36117 7.78266 8.02783C7.94944 7.80561 8.08842 7.58339 8.17181 7.30561C8.2274 7.02783 8.283 6.72228 8.283 6.33339V5.86117C7.94944 5.77783 7.61589 5.72228 7.25454 5.66672C6.89319 5.61117 6.55963 5.61117 6.19828 5.61117C5.44778 5.61117 4.91965 5.75005 4.53051 6.05561C4.16915 6.36117 3.97458 6.77783 3.97458 7.33339C3.97458 7.86117 4.11356 8.25005 4.39152 8.50005C4.66949 8.83339 5.05863 8.9445 5.58676 8.9445ZM14.5094 10.1667C14.3148 10.1667 14.1758 10.1389 14.0924 10.0556C14.009 10.0001 13.9256 9.83339 13.87 9.61117L11.2572 1.00005C11.2016 0.777832 11.146 0.638943 11.146 0.55561C11.146 0.388943 11.2294 0.277832 11.424 0.277832H12.508C12.7304 0.277832 12.8694 0.30561 12.9528 0.388943C13.0362 0.444499 13.1195 0.611165 13.1751 0.833388L15.0375 8.1945L16.7608 0.833388C16.8164 0.611165 16.872 0.472276 16.9832 0.388943C17.0666 0.333388 17.2334 0.277832 17.428 0.277832H18.3174C18.5398 0.277832 18.6788 0.30561 18.7622 0.388943C18.8456 0.444499 18.929 0.611165 18.9845 0.833388L20.7357 8.27783L22.6536 0.833388C22.7092 0.611165 22.7926 0.472276 22.876 0.388943C22.9594 0.333388 23.0984 0.277832 23.3208 0.277832H24.3492C24.516 0.277832 24.6272 0.361165 24.6272 0.55561C24.6272 0.611165 24.6272 0.666721 24.5994 0.722277C24.5994 0.777832 24.5716 0.888943 24.516 1.00005L21.8198 9.61117C21.7642 9.83339 21.6808 9.97228 21.5974 10.0556C21.514 10.1112 21.375 10.1667 21.1804 10.1667H20.2354C20.013 10.1667 19.874 10.1389 19.7906 10.0556C19.7072 9.97228 19.6239 9.83339 19.5683 9.61117L17.8449 2.4445L16.1215 9.61117C16.0659 9.83339 16.0103 9.97228 15.8992 10.0556C15.8158 10.1389 15.649 10.1667 15.4544 10.1667H14.5094ZM28.8244 10.4445C28.2407 10.4445 27.657 10.3889 27.101 10.2501C26.5451 10.1112 26.1004 9.97228 25.8224 9.80561C25.6556 9.6945 25.5167 9.58339 25.4889 9.50006C25.4611 9.41672 25.4055 9.27783 25.4055 9.1945V8.63894C25.4055 8.41672 25.4889 8.30561 25.6556 8.30561C25.7112 8.30561 25.7946 8.30561 25.8502 8.33339C25.9058 8.36117 26.017 8.38894 26.1282 8.4445C26.5173 8.61117 26.9065 8.75005 27.3512 8.83339C27.796 8.91672 28.2407 8.97228 28.6854 8.97228C29.3803 8.97228 29.9363 8.86117 30.2976 8.61117C30.6868 8.36117 30.8813 8.00005 30.8813 7.55561C30.8813 7.25005 30.7701 7.00005 30.5756 6.77783C30.381 6.55561 29.9919 6.38894 29.4637 6.1945L27.8515 5.6945C27.0455 5.4445 26.4339 5.05561 26.0726 4.55561C25.7112 4.05561 25.5167 3.52783 25.5167 2.9445C25.5167 2.47228 25.6278 2.05561 25.8224 1.72228C26.017 1.38894 26.295 1.05561 26.6285 0.80561C26.9621 0.55561 27.3512 0.361165 27.796 0.222276C28.2407 0.0833876 28.7132 0.027832 29.1858 0.027832C29.4359 0.027832 29.6861 0.027832 29.9363 0.0833876C30.1864 0.111165 30.4366 0.166721 30.659 0.194499C30.8813 0.250054 31.1037 0.30561 31.2983 0.361165C31.4929 0.416721 31.6596 0.500054 31.7708 0.55561C31.9376 0.638943 32.0488 0.722277 32.1044 0.833388C32.16 0.916721 32.2156 1.05561 32.2156 1.1945V1.72228C32.2156 1.9445 32.1322 2.08339 31.9654 2.08339C31.882 2.08339 31.743 2.02783 31.5484 1.9445C30.9091 1.66672 30.2142 1.50005 29.4081 1.50005C28.7688 1.50005 28.2685 1.61117 27.9349 1.80561C27.6014 2.00005 27.4068 2.33339 27.4068 2.80561C27.4068 3.11117 27.518 3.38894 27.7404 3.58339C27.9627 3.80561 28.3797 4.00005 28.9634 4.1945L30.5478 4.6945C31.3539 4.9445 31.9376 5.30561 32.2711 5.75005C32.6047 6.1945 32.7715 6.72228 32.7715 7.30561C32.7715 7.77783 32.6603 8.22228 32.4935 8.58339C32.2989 8.97228 32.021 9.30561 31.6874 9.55561C31.3539 9.83339 30.9369 10.0278 30.4644 10.1667C29.9085 10.3889 29.3803 10.4445 28.8244 10.4445Z" fill="#252F3E"/>
<path fill-rule="evenodd" clip-rule="evenodd" d="M30.937 15.8612C27.2679 18.5556 21.9311 20.0001 17.3725 20.0001C10.9515 20.0001 5.16993 17.639 0.805916 13.6945C0.472362 13.389 0.77812 12.9723 1.19506 13.1945C5.92042 15.9445 11.7298 17.5834 17.7616 17.5834C21.8199 17.5834 26.2951 16.7501 30.4089 15.0001C30.9926 14.7501 31.5208 15.4167 30.937 15.8612Z" fill="#FF9900"/>
<path fill-rule="evenodd" clip-rule="evenodd" d="M32.438 14.1391C31.9655 13.528 29.3527 13.8613 28.1574 14.0002C27.7961 14.0558 27.7405 13.7224 28.074 13.5002C30.1587 12.028 33.6055 12.4447 33.9946 12.9447C34.3838 13.4447 33.8834 16.8891 31.9377 18.528C31.6319 18.778 31.354 18.6391 31.493 18.3058C31.9377 17.1947 32.9106 14.7224 32.438 14.1391Z" fill="#FF9900"/>
<path d="M10.0898 7.25005C10.0898 7.66672 10.1453 8.00005 10.2009 8.25005C10.2843 8.50005 10.3955 8.75005 10.5623 9.05561C10.6179 9.13894 10.6457 9.22228 10.6457 9.30561C10.6457 9.41672 10.5901 9.52783 10.4233 9.63894L9.7284 10.1112C9.61722 10.1667 9.53383 10.2223 9.45044 10.2223C9.33925 10.2223 9.22807 10.1667 9.11688 10.0556C8.95011 9.88894 8.83892 9.72228 8.72774 9.52783C8.61655 9.33339 8.50537 9.13894 8.39418 8.86117C7.5325 9.88894 6.44845 10.3889 5.11423 10.3889C4.16915 10.3889 3.44645 10.1112 2.89053 9.58339C2.3346 9.05561 2.05664 8.33339 2.05664 7.4445C2.05664 6.50005 2.3902 5.72228 3.05731 5.16672C3.72441 4.61117 4.64169 4.30561 5.78134 4.30561C6.17048 4.30561 6.55963 4.33339 6.94878 4.38894C7.36572 4.4445 7.78266 4.52783 8.2274 4.63894V3.83339C8.2274 3.00005 8.06063 2.38894 7.69928 2.05561C7.33792 1.72228 6.7542 1.55561 5.89252 1.55561C5.50337 1.55561 5.11423 1.61117 4.69728 1.6945C4.28034 1.80561 3.89119 1.91672 3.50204 2.08339C3.33527 2.13894 3.19629 2.1945 3.1129 2.22228C3.02951 2.22228 2.97392 2.25005 2.94612 2.25005C2.77934 2.25005 2.72375 2.13894 2.72375 1.91672V1.36117C2.72375 1.1945 2.75155 1.05561 2.80714 0.972277C2.86273 0.888943 2.97392 0.80561 3.1129 0.750054C3.50204 0.55561 3.97458 0.388943 4.50271 0.250054C5.05863 0.111165 5.61456 0.027832 6.22608 0.027832C7.56029 0.027832 8.50537 0.333388 9.14468 0.916721C9.7562 1.52783 10.062 2.41672 10.062 3.66672L10.0898 7.25005ZM5.58676 8.9445C5.94811 8.9445 6.33726 8.88894 6.72641 8.75005C7.11555 8.61117 7.47691 8.36117 7.78266 8.02783C7.94944 7.80561 8.08842 7.58339 8.17181 7.30561C8.2274 7.02783 8.283 6.72228 8.283 6.33339V5.86117C7.94944 5.77783 7.61589 5.72228 7.25454 5.66672C6.89319 5.61117 6.55963 5.61117 6.19828 5.61117C5.44778 5.61117 4.91965 5.75005 4.53051 6.05561C4.16915 6.36117 3.97458 6.77783 3.97458 7.33339C3.97458 7.86117 4.11356 8.25005 4.39152 8.50005C4.66949 8.83339 5.05863 8.9445 5.58676 8.9445ZM14.5094 10.1667C14.3148 10.1667 14.1758 10.1389 14.0924 10.0556C14.009 10.0001 13.9256 9.83339 13.87 9.61117L11.2572 1.00005C11.2016 0.777832 11.146 0.638943 11.146 0.55561C11.146 0.388943 11.2294 0.277832 11.424 0.277832H12.508C12.7304 0.277832 12.8694 0.30561 12.9528 0.388943C13.0362 0.444499 13.1195 0.611165 13.1751 0.833388L15.0375 8.1945L16.7608 0.833388C16.8164 0.611165 16.872 0.472276 16.9832 0.388943C17.0666 0.333388 17.2334 0.277832 17.428 0.277832H18.3174C18.5398 0.277832 18.6788 0.30561 18.7622 0.388943C18.8456 0.444499 18.929 0.611165 18.9845 0.833388L20.7357 8.27783L22.6536 0.833388C22.7092 0.611165 22.7926 0.472276 22.876 0.388943C22.9594 0.333388 23.0984 0.277832 23.3208 0.277832H24.3492C24.516 0.277832 24.6272 0.361165 24.6272 0.55561C24.6272 0.611165 24.6272 0.666721 24.5994 0.722277C24.5994 0.777832 24.5716 0.888943 24.516 1.00005L21.8198 9.61117C21.7642 9.83339 21.6808 9.97228 21.5974 10.0556C21.514 10.1112 21.375 10.1667 21.1804 10.1667H20.2354C20.013 10.1667 19.874 10.1389 19.7906 10.0556C19.7072 9.97228 19.6239 9.83339 19.5683 9.61117L17.8449 2.4445L16.1215 9.61117C16.0659 9.83339 16.0103 9.97228 15.8992 10.0556C15.8158 10.1389 15.649 10.1667 15.4544 10.1667H14.5094ZM28.8244 10.4445C28.2407 10.4445 27.657 10.3889 27.101 10.2501C26.5451 10.1112 26.1004 9.97228 25.8224 9.80561C25.6556 9.6945 25.5167 9.58339 25.4889 9.50006C25.4611 9.41672 25.4055 9.27783 25.4055 9.1945V8.63894C25.4055 8.41672 25.4889 8.30561 25.6556 8.30561C25.7112 8.30561 25.7946 8.30561 25.8502 8.33339C25.9058 8.36117 26.017 8.38894 26.1282 8.4445C26.5173 8.61117 26.9065 8.75005 27.3512 8.83339C27.796 8.91672 28.2407 8.97228 28.6854 8.97228C29.3803 8.97228 29.9363 8.86117 30.2976 8.61117C30.6868 8.36117 30.8813 8.00005 30.8813 7.55561C30.8813 7.25005 30.7701 7.00005 30.5756 6.77783C30.381 6.55561 29.9919 6.38894 29.4637 6.1945L27.8515 5.6945C27.0455 5.4445 26.4339 5.05561 26.0726 4.55561C25.7112 4.05561 25.5167 3.52783 25.5167 2.9445C25.5167 2.47228 25.6278 2.05561 25.8224 1.72228C26.017 1.38894 26.295 1.05561 26.6285 0.80561C26.9621 0.55561 27.3512 0.361165 27.796 0.222276C28.2407 0.0833876 28.7132 0.027832 29.1858 0.027832C29.4359 0.027832 29.6861 0.027832 29.9363 0.0833876C30.1864 0.111165 30.4366 0.166721 30.659 0.194499C30.8813 0.250054 31.1037 0.30561 31.2983 0.361165C31.4929 0.416721 31.6596 0.500054 31.7708 0.55561C31.9376 0.638943 32.0488 0.722277 32.1044 0.833388C32.16 0.916721 32.2156 1.05561 32.2156 1.1945V1.72228C32.2156 1.9445 32.1322 2.08339 31.9654 2.08339C31.882 2.08339 31.743 2.02783 31.5484 1.9445C30.9091 1.66672 30.2142 1.50005 29.4081 1.50005C28.7688 1.50005 28.2685 1.61117 27.9349 1.80561C27.6014 2.00005 27.4068 2.33339 27.4068 2.80561C27.4068 3.11117 27.518 3.38894 27.7404 3.58339C27.9627 3.80561 28.3797 4.00005 28.9634 4.1945L30.5478 4.6945C31.3539 4.9445 31.9376 5.30561 32.2711 5.75005C32.6047 6.1945 32.7715 6.72228 32.7715 7.30561C32.7715 7.77783 32.6603 8.22228 32.4935 8.58339C32.2989 8.97228 32.021 9.30561 31.6874 9.55561C31.3539 9.83339 30.9369 10.0278 30.4644 10.1667C29.9085 10.3889 29.3803 10.4445 28.8244 10.4445Z" fill="#252F3E"/>
<path fill-rule="evenodd" clip-rule="evenodd" d="M30.937 15.8612C27.2679 18.5556 21.9311 20.0001 17.3725 20.0001C10.9515 20.0001 5.16993 17.639 0.805916 13.6945C0.472362 13.389 0.77812 12.9723 1.19506 13.1945C5.92042 15.9445 11.7298 17.5834 17.7616 17.5834C21.8199 17.5834 26.2951 16.7501 30.4089 15.0001C30.9926 14.7501 31.5208 15.4167 30.937 15.8612Z" fill="#FF9900"/>
<path fill-rule="evenodd" clip-rule="evenodd" d="M32.438 14.1391C31.9655 13.528 29.3527 13.8613 28.1574 14.0002C27.7961 14.0558 27.7405 13.7224 28.074 13.5002C30.1587 12.028 33.6055 12.4447 33.9946 12.9447C34.3838 13.4447 33.8834 16.8891 31.9377 18.528C31.6319 18.778 31.354 18.6391 31.493 18.3058C31.9377 17.1947 32.9106 14.7224 32.438 14.1391Z" fill="#FF9900"/>
</g>
<defs>
<clipPath id="clip0_95_538">
<rect width="33.4667" height="20" fill="white" transform="translate(0.666992)"/>
</clipPath>
</defs>
</svg>
