<svg width="22" height="20" viewBox="0 0 22 20" fill="none" xmlns="http://www.w3.org/2000/svg">
<path d="M7.86133 1.37256H13.4145L7.65764 18.4703C7.53972 18.8352 7.19666 19.0714 6.82145 19.0714H2.4904C1.99726 19.0714 1.61133 18.6742 1.61133 18.1912C1.61133 18.0946 1.62205 17.998 1.65421 17.9122L7.02514 1.97361C7.14306 1.61942 7.48611 1.37256 7.86133 1.37256Z" fill="url(#paint0_linear_95_519)"/>
<path d="M15.9334 12.8354H7.13198C6.90686 12.8354 6.72461 13.0179 6.72461 13.2433C6.72461 13.3614 6.76749 13.4687 6.85325 13.5438L12.5136 18.8245C12.6744 18.9748 12.8996 19.0606 13.1247 19.0606H18.1097L15.9334 12.8354Z" fill="#0078D4"/>
<path d="M7.86108 1.37256C7.47515 1.37256 7.13209 1.61942 7.02489 1.98434L1.66468 17.88C1.50388 18.3415 1.73973 18.846 2.2007 19.007C2.29719 19.0392 2.39367 19.0606 2.50088 19.0606H6.92841C7.26074 18.9962 7.53947 18.7601 7.65739 18.4381L8.72944 15.2826L12.5459 18.8674C12.7067 18.9962 12.9104 19.0714 13.1141 19.0714H18.0776L15.9014 12.8355H9.55491L13.4357 1.37256H7.86108Z" fill="url(#paint1_linear_95_519)"/>
<path d="M14.9584 1.97361C14.8405 1.60869 14.4974 1.37256 14.1222 1.37256H7.93652C8.31174 1.37256 8.65479 1.61942 8.77272 1.97361L14.1329 17.9015C14.2937 18.363 14.0364 18.8674 13.5755 19.0177C13.4897 19.0499 13.3932 19.0606 13.2967 19.0606H19.4824C19.9755 19.0606 20.3615 18.6635 20.3615 18.1805C20.3615 18.0839 20.3508 17.9873 20.3186 17.9015L14.9584 1.97361Z" fill="url(#paint2_linear_95_519)"/>
<defs>
<linearGradient id="paint0_linear_95_519" x1="9.88834" y1="2.68414" x2="4.11123" y2="19.7311" gradientUnits="userSpaceOnUse">
<stop stop-color="#114A8B"/>
<stop offset="1" stop-color="#0765B6"/>
</linearGradient>
<linearGradient id="paint1_linear_95_519" x1="11.6889" y1="10.6302" x2="10.355" y2="11.0807" gradientUnits="userSpaceOnUse">
<stop stop-opacity="0.3"/>
<stop offset="0.071" stop-opacity="0.2"/>
<stop offset="0.321" stop-opacity="0.1"/>
<stop offset="0.623" stop-opacity="0.05"/>
<stop offset="1" stop-opacity="0"/>
</linearGradient>
<linearGradient id="paint2_linear_95_519" x1="10.9974" y1="2.17127" x2="17.3387" y2="19.0457" gradientUnits="userSpaceOnUse">
<stop stop-color="#3BC9F3"/>
<stop offset="1" stop-color="#2892DF"/>
</linearGradient>
</defs>
</svg>
