<svg width="21" height="20" viewBox="0 0 21 20" fill="none" xmlns="http://www.w3.org/2000/svg">
<g clip-path="url(#clip0_18_6563)">
<path d="M13.0066 7.00208L13.5405 7.0112L14.991 5.56068L15.0613 4.94609C13.9108 3.92109 12.3918 3.29688 10.7319 3.29688C7.72669 3.29688 5.19023 5.34167 4.43945 8.11146C4.59779 8.00104 4.93633 8.08385 4.93633 8.08385L7.83477 7.60729C7.83477 7.60729 7.98372 7.36068 8.05924 7.37292C8.39816 7.00057 8.81113 6.70313 9.27169 6.49967C9.73224 6.29621 10.2302 6.19121 10.7337 6.19141C11.5931 6.19323 12.3848 6.49688 13.0066 6.99922V7.00208Z" fill="#EA4335"/>
<path d="M17.028 8.11717C16.6913 6.87498 15.9973 5.77811 15.0605 4.94608L13.0066 6.99998C13.8296 7.66404 14.3574 8.68019 14.3574 9.81769V10.1802C15.3566 10.1802 16.1684 10.9937 16.1684 11.9911C16.1684 12.9903 15.3548 13.8021 14.3574 13.8021H10.7355L10.373 14.1666V16.3401L10.7355 16.7008H14.3574C15.6059 16.699 16.8028 16.2023 17.6856 15.3195C18.5685 14.4367 19.0653 13.2399 19.0671 11.9914C19.0652 10.3885 18.2598 8.97029 17.028 8.11717Z" fill="#4285F4"/>
<path d="M7.10924 16.7031H10.729V13.8021H7.10924C6.85207 13.8021 6.59789 13.7469 6.36393 13.6401L5.84128 13.8003L4.39076 15.2508L4.26367 15.7404C5.08109 16.364 6.08086 16.7015 7.10898 16.701L7.10924 16.7031Z" fill="#34A853"/>
<path d="M7.11003 7.28384C5.86153 7.28557 4.66465 7.78228 3.78181 8.66507C2.89896 9.54787 2.40218 10.7447 2.40039 11.9932C2.40039 13.5226 3.13294 14.8825 4.26654 15.744L6.36654 13.644C6.04868 13.5007 5.7789 13.2687 5.58957 12.9759C5.40024 12.6831 5.29938 12.3419 5.29909 11.9932C5.29909 10.994 6.11263 10.1823 7.11003 10.1823C7.8444 10.1823 8.47565 10.625 8.76107 11.25L10.8611 9.14999C9.99987 8.0164 8.63971 7.28384 7.11029 7.28384H7.11003Z" fill="#FBBC05"/>
</g>
<defs>
<clipPath id="clip0_18_6563">
<rect width="16.6667" height="16.6667" fill="white" transform="translate(2.40039 1.66666)"/>
</clipPath>
</defs>
</svg>
